{"title":"Another.Me(2013)720p.WEB-DL.H264.AAC.Raven","uid":11233083,"size":667665258,"categoryP":"video","categoryS":"movies","magnet":"?xt=urn:btih:78a0bf17a6d61f0ee3b5ec9a227cf4ca84b9fa7b&amp;dn=Another.Me%282013%29720p.WEB-DL.H264.AAC.Raven&amp;tr=udp%3A%2F%2Ftracker.openbittorrent.com%3A80&amp;tr=udp%3A%2F%2Fopen.demonii.com%3A1337&amp;tr=udp%3A%2F%2Ftracker.coppersurfer.tk%3A6969&amp;tr=udp%3A%2F%2Fexodus.desync.com%3A6969","seeders":1,"leechers":0,"uploader":"Raven1969","files":-1,"time":1413562749,"description":"Another.Me(2013)720p.WEB-DL.H264.AAC.Raven.mp4\n\n\n\n\n\nEnglish, Arabic and Indonesian subs included.\n\n\n\nScreen images:\n\n\n &lt;a href=&quot;\nhttp://i.imgur.com/P2xzPn9.png&quot; rel=&quot;nofollow&quot; target=&quot;_NEW&quot;&gt;\nhttp://i.imgur.com/P2xzPn9.png&lt;/a&gt;\n\n &lt;a href=&quot;\nhttp://i.imgur.com/4DxDF9G.png&quot; rel=&quot;nofollow&quot; target=&quot;_NEW&quot;&gt;\nhttp://i.imgur.com/4DxDF9G.png&lt;/a&gt;\n\n &lt;a href=&quot;\nhttp://i.imgur.com/Aj2rAGh.png&quot; rel=&quot;nofollow&quot; target=&quot;_NEW&quot;&gt;\nhttp://i.imgur.com/Aj2rAGh.png&lt;/a&gt;\n\n &lt;a href=&quot;\nhttp://i.imgur.com/l9nueBd.png&quot; rel=&quot;nofollow&quot; target=&quot;_NEW&quot;&gt;\nhttp://i.imgur.com/l9nueBd.png&lt;/a&gt;\n\n &lt;a href=&quot;\nhttp://i.imgur.com/U35EK6i.png&quot; rel=&quot;nofollow&quot; target=&quot;_NEW&quot;&gt;\nhttp://i.imgur.com/U35EK6i.png&lt;/a&gt;\n\n &lt;a href=&quot;\nhttp://i.imgur.com/mgmc6Yx.png&quot; rel=&quot;nofollow&quot; target=&quot;_NEW&quot;&gt;\nhttp://i.imgur.com/mgmc6Yx.png&lt;/a&gt;\n\n\n\n\nStoryline:\n\nA teenager finds her perfect life upended when she's stalked by a mysterious doppelganger who has her eyes set on assuming her identity.\n\n\n\nGeneral\nFormat                                   : MPEG-4\nFormat profile                           : Base Media\nCodec ID                                 : isom\nFile size                                : 632 MiB\nDuration                                 : 1h 24mn\nOverall bit rate mode                    : Variable\nOverall bit rate                         : 1 044 Kbps\nEncoded date                             : UTC 2014-10-17 08:33:30\nTagged date                              : UTC 2014-10-17 08:33:30\n\nVideo\nID                                       : 1\nFormat                                   : AVC\nFormat/Info                              : Advanced Video Codec\nFormat profile                           : &lt;a class=&quot;__cf_email__&quot; href=&quot;/cdn-cgi/l/email-protection&quot; data-cfemail=&quot;fab2939d92bab6ced4ca&quot;&gt;[email&amp;#160;protected]&lt;/a&gt;&lt;script cf-hash='f9e31' type=&quot;text/javascript&quot;&gt;\n/* &lt;![CDATA[ */!function(){try{var t=&quot;currentScript&quot;in document?document.currentScript:function(){for(var t=document.getElementsByTagName(&quot;script&quot;),e=t.length;e--;)if(t[e].getAttribute(&quot;cf-hash&quot;))return t[e]}();if(t&amp;&amp;t.previousSibling){var e,r,n,i,c=t.previousSibling,a=c.getAttribute(&quot;data-cfemail&quot;);if(a){for(e=&quot;&quot;,r=parseInt(a.substr(0,2),16),n=2;a.length-n;n+=2)i=parseInt(a.substr(n,2),16)^r,e+=String.fromCharCode(i);e=document.createTextNode(e),c.parentNode.replaceChild(e,c)}}}catch(u){}}();/* ]]&gt; */&lt;/script&gt;\nFormat settings, CABAC                   : Yes\nFormat settings, ReFrames                : 9 frames\nCodec ID                                 : avc1\nCodec ID/Info                            : Advanced Video Coding\nDuration                                 : 1h 24mn\nBit rate                                 : 950 Kbps\nMaximum bit rate                         : 14.3 Mbps\nWidth                                    : 1 280 pixels\nHeight                                   : 694 pixels\nDisplay aspect ratio                     : 1.85:1\nFrame rate mode                          : Constant\nFrame rate                               : 23.976 fps\nColor space                              : YUV\nChroma subsampling                       : 4:2:0\nBit depth                                : 8 bits\nScan type                                : Progressive\nBits/(Pixel*Frame)                       : 0.045\nStream size                              : 574 MiB (91%)\nWriting library                          : x264 core 132 \nEncoded date                             : UTC 2014-10-17 08:33:30\nTagged date                              : UTC 2014-10-17 08:33:50\n\nAudio\nID                                       : 2\nFormat                                   : AAC\nFormat/Info                              : Advanced Audio Codec\nFormat profile                           : LC\nCodec ID                                 : 40\nDuration                                 : 1h 24mn\nBit rate mode                            : Variable\nBit rate                                 : 92.0 Kbps\nMaximum bit rate                         : 147 Kbps\nChannel(s)                               : 2 channels\nChannel positions                        : Front: L R\nSampling rate                            : 48.0 KHz\nCompression mode                         : Lossy\nStream size                              : 55.6 MiB (9%)\nEncoded date                             : UTC 2014-10-17 07:28:39\nTagged date                              : UTC 2014-10-17 08:33:50\n\n\n\n\nPLEASE  SEED FOR AS LONG AS POSSIBLE TO KEEP THE TORRENT ALIVE :-)","torrent":{"xt":"urn:btih:78a0bf17a6d61f0ee3b5ec9a227cf4ca84b9fa7b","amp;dn":"Another.Me%282013%29720p.WEB-DL.H264.AAC.Raven","amp;tr":["udp%3A%2F%2Ftracker.openbittorrent.com%3A80","udp%3A%2F%2Fopen.demonii.com%3A1337","udp%3A%2F%2Ftracker.coppersurfer.tk%3A6969","udp%3A%2F%2Fexodus.desync.com%3A6969"],"infoHash":"78a0bf17a6d61f0ee3b5ec9a227cf4ca84b9fa7b","infoHashBuffer":{"type":"Buffer","data":[120,160,191,23,166,214,31,14,227,181,236,154,34,124,244,202,132,185,250,123]},"announce":[],"urlList":[]}}